/* XPM */
static char *_ebd11797c4b459ec144ae7dc5fcd5f6[] = {
/* columns rows colors chars-per-pixel */
"32 32 164 2 ",
"   c None",
".  c #000E12",
"X  c #090E14",
"o  c #041216",
"O  c #091017",
"+  c #03151C",
"@  c #0E121F",
"#  c #00181E",
"$  c #051722",
"%  c #0A1622",
"&  c #021823",
"*  c #0A1826",
"=  c #0E1728",
"-  c #061A29",
";  c #0E192B",
":  c #11192D",
">  c #101424",
",  c #141A31",
"<  c #1C1A35",
"1  c #151D3A",
"2  c #1A1D3D",
"3  c #281837",
"4  c #241C35",
"5  c #351E3A",
"6  c #062436",
"7  c #1C1F45",
"8  c #2F1C42",
"9  c #381E44",
"0  c #371C4D",
"q  c #0C2C44",
"w  c #09304A",
"e  c #0C3A5B",
"r  c #0C3350",
"t  c #22214D",
"y  c #232354",
"u  c #2A2354",
"i  c #2B2459",
"p  c #2C2661",
"a  c #332765",
"s  c #382765",
"d  c #3C2A73",
"f  c #372B79",
"g  c #3E2D7E",
"h  c #461F4E",
"j  c #4D1F59",
"k  c #501F59",
"l  c #422046",
"z  c #4E2146",
"x  c #5A215C",
"c  c #61244B",
"v  c #67225C",
"b  c #74255A",
"n  c #5A1F68",
"m  c #621F78",
"M  c #5C2068",
"N  c #462C7B",
"B  c #6C2462",
"V  c #7A2566",
"C  c #632073",
"Z  c #65207A",
"A  c #7F2479",
"S  c #762471",
"D  c #0A4C76",
"F  c #8D2776",
"G  c #9A2973",
"H  c #A82C6C",
"J  c #B92D79",
"K  c #C32F77",
"L  c #3C2D82",
"P  c #492F8D",
"I  c #4D2D82",
"U  c #493199",
"Y  c #54339A",
"T  c #553194",
"R  c #4E35A5",
"E  c #5535A7",
"W  c #5237AF",
"Q  c #5E39B9",
"!  c #6A37AB",
"~  c #6439B2",
"^  c #6B39B1",
"/  c #7139B4",
"(  c #733AB9",
")  c #0A5583",
"_  c #086498",
"`  c #076BA3",
"'  c #076FA9",
"]  c #0771AB",
"[  c #653DCC",
"{  c #6C3DCB",
"}  c #6C3BC4",
"|  c #743ECC",
" . c #7A3ECD",
".. c #673ED2",
"X. c #6C3FD2",
"o. c #743ED4",
"O. c #7E3ED1",
"+. c #7340D7",
"@. c #7A40D5",
"#. c #7D41D9",
"$. c #802383",
"%. c #9D2885",
"&. c #8B2396",
"*. c #BF2D85",
"=. c #BD2C8B",
"-. c #A62899",
";. c #A32698",
":. c #B02A93",
">. c #AE26AE",
",. c #C92F81",
"<. c #C02C94",
"1. c #F4358B",
"2. c #E0309E",
"3. c #E93199",
"4. c #E13195",
"5. c #F93496",
"6. c #F9339F",
"7. c #F53399",
"8. c #C72BA8",
"9. c #CD2BAD",
"0. c #D82EA2",
"q. c #CC28BD",
"w. c #E62FAA",
"e. c #E92FAC",
"r. c #E730A2",
"t. c #EA30A3",
"y. c #F031A6",
"u. c #F531A9",
"i. c #F833A1",
"p. c #E32EB2",
"a. c #EA2FB6",
"s. c #E42DBD",
"d. c #EC2FB8",
"f. c #F42FBD",
"g. c #F330B2",
"h. c #813FD1",
"j. c #DF2ACD",
"k. c #C326D1",
"l. c #D128D4",
"z. c #DE29D6",
"x. c #E12CC5",
"c. c #EF2EC4",
"v. c #E22ACF",
"b. c #E82CCA",
"n. c #F12EC5",
"m. c #F12DCF",
"M. c #EC2BD6",
"N. c #E42ADB",
"B. c #EE2BD9",
"V. c #F22DD7",
"C. c #ED2AE3",
"Z. c #ED29ED",
"A. c #F42AF4",
"S. c #8541D6",
"D. c #8340DA",
"F. c #8942DB",
"G. c #8E42E0",
"H. c #9244E3",
"J. c #0581C4",
"K. c #048CD4",
"L. c #029CEC",
"P. c #01A2F4",
"I. c #00A6FB",
"U. c #00AAFF",
/* pixels */
"                                                                ",
"                          ; ; ; ; ; ;                           ",
"                    ; ; ; ; & # # & ; ; ; ;                     ",
"                ; ; ; ; ; : M C C m < * ; ; ; ;                 ",
"              ; ; ; ; ; $ j B.C.A.k.; ; ; ; ; ; ;               ",
"            ; ; ; ; ; ; $ ;.B.z.Z.Z # * ; ; ; ; ; ;             ",
"          ; ; ; ; ; ; $ 8 x.v.N.l.< 1 y * ; ; ; ; ; ;           ",
"        ; ; ; ; ; ; ; & A m.j.B.&.o f R % ; ; ; ; ; ; ;         ",
"      ; ; ; ; ; ; ; * , 9.b.v.N.0 & W [ t * ; ; ; ; ; ; ;       ",
"      ; ; ; ; ; ; : & x n.x.M.>.# y [ ..g + ; ; ; : ; ; ;       ",
"    ; ; ; ; ; ; ; ; $ :.n.x.B.v # U ..[ Q , ; ; ; ; ; ; : ;     ",
"    ; ; ; ; ; ; ; & 9 a.s.b.q.4 $ R [ [ +.a + ; ; ; ; ; ; ;     ",
"  : ; ; ; ; ; ; ; & F f.s.M.T O + p X.{ +.E $ ; ; ; ; ; ; ;     ",
"  ; ; ; ; ; ; ; - < 0.d.s.x.8 - : : Q { { { t % ; ; ; : ; ; ;   ",
"  ; ; ; ; ; ; ; & v g.p.n.;.o D ) X g +.{ +.P % ; ; ; ; ; ; ;   ",
"  ; ; ; ; : ; ; * =.g.p.n.x o J.K.% 2 { | +.} 1 * ; ; ; ; ; ;   ",
"  ; ; ; ; : : & h y.e.d.8.> w P.I.e X Y o.o.#.s + : ; ; ; ; ;   ",
"  ; ; ; ; ; ; & G i.e.n.S . _ U.I.' X i @.| @.Q ; ; ; ; ; ; :   ",
"  ; ; ; ; ; * 4 4.t.e.p.3 6 L.U.U.P.q = ~ #.o.#.u % : ; ; ; ;   ",
"  ; ; ; ; ; $ b 6.r.g.%.+ w ] ` ` ] e X d D. .h.Y + ; ; ; ;     ",
"    ; ; ; ; ; K 7.t.g.h & ; @ @ % @ ; * < | O.h.@.2 * ; ; ;     ",
"    : ; ; & h 5.3.y.=.* ; ; ; ; : = ; ; $ T D.O.F.N + ; ; ;     ",
"    ; ; ; & H 7.3.u.B & ; ; ; ; ; = : ; % u S.h.S.( ; ; ;       ",
"      ; * 5 1.7.i.r.< - ; ; ; ; ; ; ; ; ; * ^ F.F.H.s % ;       ",
"        - c K J *.V - ; ; ; ; ; ; ; ; ; ; $ s / ! / I %         ",
"        ; ; ; - * $ ; ; ; ; ; ; ; ; ; ; : ; * * * * ;           ",
"          ; ; ; ; ; ; ; ; ; ; ; ; : ; ; ; ; ; ; = ; ;           ",
"            ; ; ; ; ; : ; ; ; ; ; ; ; ; ; ; ; ; :               ",
"                ; ; ; ; ; ; ; ; ; ; ; ; ; ; ; ;                 ",
"                  ; ; ; ; ; ; : ; ; ; ; ; ;                     ",
"                        ; ; ; ; ; ; ; ;                         ",
"                                                                "
};
