/* XPM */
static char *_dae7c9a52b94103cd8b17ceb0278492[] = {
/* columns rows colors chars-per-pixel */
"64 64 191 2 ",
"   c None",
".  c #0F0F1D",
"X  c #06171F",
"o  c #0F111E",
"O  c #00181E",
"+  c #10111F",
"@  c #031722",
"#  c #0B1522",
"$  c #031823",
"%  c #0A1826",
"&  c #0E1728",
"*  c #0E192B",
"=  c #061928",
"-  c #111A2D",
";  c #141B33",
":  c #1C1B34",
">  c #191E3D",
",  c #171C38",
"<  c #241C3A",
"1  c #271D39",
"2  c #351F3D",
"3  c #0F243B",
"4  c #1C1F43",
"5  c #2E1D42",
"6  c #3B1E4B",
"7  c #371D46",
"8  c #3B1D54",
"9  c #0F2A42",
"0  c #1D2045",
"q  c #0F314D",
"w  c #0D3A5A",
"e  c #0E3553",
"r  c #23214B",
"t  c #252354",
"y  c #2A255D",
"u  c #2C2456",
"i  c #31255D",
"p  c #0D3E61",
"a  c #342765",
"s  c #3C296E",
"d  c #36296E",
"f  c #372B78",
"g  c #471F57",
"h  c #47214A",
"j  c #59234D",
"k  c #482053",
"l  c #522156",
"z  c #5C215F",
"x  c #6B254F",
"c  c #68235D",
"v  c #571F67",
"b  c #412B77",
"n  c #632269",
"m  c #6C226D",
"M  c #772665",
"N  c #622174",
"B  c #752474",
"V  c #0C456B",
"C  c #922A5F",
"Z  c #8E2864",
"A  c #8C276E",
"S  c #892865",
"D  c #842675",
"F  c #9A2978",
"G  c #932A62",
"H  c #B12D74",
"J  c #D23276",
"K  c #3F2E84",
"L  c #482F83",
"P  c #532F8B",
"I  c #48308C",
"U  c #53308C",
"Y  c #4B339C",
"T  c #463194",
"R  c #543193",
"E  c #5A349D",
"W  c #583193",
"Q  c #6C2182",
"!  c #7C2384",
"~  c #5C37AD",
"^  c #5835A7",
"/  c #5539B3",
"(  c #5837B1",
")  c #6B39B3",
"_  c #673ABB",
"`  c #723ABE",
"'  c #6436A8",
"]  c #0A5D8D",
"[  c #0B5481",
"{  c #09699E",
"}  c #0772AE",
"|  c #0778B6",
" . c #5D3CC5",
".. c #5F3CC9",
"X. c #643CC4",
"o. c #643CC9",
"O. c #6B3DCB",
"+. c #683BC2",
"@. c #733ECD",
"#. c #7A3ECE",
"$. c #7C3DC5",
"%. c #653ED1",
"&. c #6C3FD3",
"*. c #743FD3",
"=. c #7D3ED1",
"-. c #7340D7",
";. c #7D41D6",
":. c #7D41D9",
">. c #6740D8",
",. c #8D2582",
"<. c #98278B",
"1. c #8F2591",
"2. c #A9298C",
"3. c #A1269D",
"4. c #B42A92",
"5. c #9124A1",
"6. c #A927A7",
"7. c #BD2AA6",
"8. c #B428AC",
"9. c #B127B5",
"0. c #B126BC",
"q. c #C42E8B",
"w. c #DA3283",
"e. c #DB2F9D",
"r. c #C82D9A",
"t. c #EB328D",
"y. c #FC368E",
"u. c #F1348B",
"i. c #EA3294",
"p. c #E8319C",
"a. c #E33198",
"s. c #F5339D",
"d. c #F83495",
"f. c #CC2CA6",
"g. c #D32EA1",
"h. c #D72CB8",
"j. c #C129B4",
"k. c #E72FAA",
"l. c #EB2FAD",
"z. c #E12FA5",
"x. c #E730A4",
"c. c #E930A1",
"v. c #EC30AB",
"b. c #F432A5",
"n. c #F331AB",
"m. c #FC32A9",
"M. c #E52EB3",
"N. c #E42DBC",
"B. c #EC2EBD",
"V. c #EC2EB6",
"C. c #F12FBE",
"Z. c #F430B3",
"A. c #F330BB",
"S. c #813FCE",
"D. c #823FD1",
"F. c #B525C7",
"G. c #DF2ACF",
"H. c #D92BC1",
"J. c #CA27D3",
"K. c #DF29D4",
"L. c #DE29DA",
"P. c #D428DE",
"I. c #C828C2",
"U. c #E12CC4",
"Y. c #E12ACD",
"T. c #EA2DCA",
"R. c #ED2EC5",
"E. c #F32EC5",
"W. c #F12DCC",
"Q. c #E42AD5",
"!. c #EC2BD3",
"~. c #EC2ADD",
"^. c #E32ADD",
"/. c #F62CDB",
"(. c #DC28E1",
"). c #E92AE4",
"_. c #E529E9",
"`. c #E829E9",
"'. c #EC28F5",
"]. c #8440D3",
"[. c #8541DA",
"{. c #8C42DC",
"}. c #8E42E0",
"|. c #9144E2",
" X c #048DD5",
".X c #0587CD",
"XX c #019EEE",
"oX c #019FF0",
"OX c #01A2F4",
"+X c #00A6FA",
"@X c #00A9FE",
/* pixels */
"                                                                                                                                ",
"                                                                                                                                ",
"                                                          * * * * * *                                                           ",
"                                                  * * * * * * * * * * * * * *                                                   ",
"                                          * * * * * * * * * * * * * * * * * * * * *                                             ",
"                                      * * * * * * * * * * * * % * % * % * * * * - * * * *                                       ",
"                                  * * * * * * * * * * * = % % % % % = % - * * * * * * * * *                                     ",
"                              * * - * * * * * * * * % , 6.8.8.9.0.0.0.F.8 = * * * * * * * * * *                                 ",
"                            * * * * * * * * * * * * O n /.Q.^.).)._.'.J.- % * * * * * * * * * * *                               ",
"                          * * * * - * * * * * * * * @ 8.!.G.Q.K.L.(.'.Q $ * * * * * * * * * * * * * *                           ",
"                        * * * * * * * * * * * * * @ 6 T.Y.Y.K.L.L._.P.4 $ * * * * * * * * * * * * * * *                         ",
"                      * * * * * * * * * * * * * * @ <.!.Y.Y.K.L.L.`.5.@ * * % * * * * * * * * * * * * * *                       ",
"                    - * * * * * * * * * * * * * = < h.T.G.Y.K.L.(._.8 @ * ; t = * * * * * * * * * * * * * *                     ",
"                  * * * * * * * * * * * * * * * O m W.H.Y.Y.K.K.).0.% * # y / * * * * * * * * * * * * * * * *                   ",
"                * * * * * * * * * * * * * * * % = f.T.U.Y.G.K.L.`.N X * # T >.y % * * * * * * * * * * * * * * *                 ",
"              * * * * * * * * * * * * * * * * @ g T.U.U.G.Y.K.^.J.: % % 4  .%.K % * * * * * * * * * - * * * * *                 ",
"              * * * * * * * * * * * * * * * * @ 2.R.U.U.Y.G.K.).1.O * # f %... .> % * * * * * * * * * * * * * * *               ",
"            * * * * * * * * * * * * * * * * = 1 h.R.U.U.Y.Y.Q.^.6 @ = - / ....%.f X * * * * * * * * * * * * * * *               ",
"          * * * * * * * * * * * * * * * * * @ B E.N.U.U.G.G.~.6.@ * @ y %... .O.( * * * * * * * * * * * * * * * * *             ",
"          * * * * * * * * * * * * * * * * * - f.B.U.U.U.Y.Y.~.v @ * = Y %... .o.%.y # * * * * * * * * * * * * * * * *           ",
"          * * * * - * * * * * * * & * * * $ l A.N.N.U.H.G.!.I.; = % 4 o...o. .o.%.Y % * * * * * * * * * * * * * * * *           ",
"        * * * * * * * * * * * * * - * * * @ 2.C.N.N.U.U.G.~.! O * % K %.o.o.o.o.O.o.4 % * * * * * * * * * * * * * * *           ",
"        * * * * * * * * * * * * * * * * @ 7 M.N.N.N.U.U.U.G.5 = * % Y %.o.o.o.o.O.&.L X * * * * * * * * * * * * - * * *         ",
"      * * * * * * * * * * * * * * * * - O D A.M.N.N.U.U.!.3.@ * * # y %.o.o.o.o.O.&./ - & * * * * * * * * - * * * * * *         ",
"      * * * * * * * * - * * * * * * * % ; g.V.M.N.N.H.Y.!.v O * * * & ( O.o.o.O.o.O.&.a X * * * * * * * * * * * * * * *         ",
"      * * * * * * * * * * * * * * * * $ c Z.M.M.M.N.U.T.8.* % * * * X f &.O.O.o.O.o.&.^ # * * * * - * * * * * * * * * * *       ",
"      * * * * * * * * * * * * * * * % = 4.Z.M.N.M.U.U.!.B @ * & & * % > o.O.o.O.O.O.O.&.5 @ * * * * * * * * * * * * * * *       ",
"    * * * * * * * * * * * * * - * * @ 6 l.k.k.M.N.N.R.H.< % & 9 q # * X T &.o.O.O.O.O.*.T @ * * * * * * * * * * * * * * *       ",
"    * * * * * * * * * * * * * * * * $ F n.M.M.M.N.N.T.<.$ * . ] } + & % t O.O.O.O.O.O.@.+., % * * * * * * * * * * * * * *       ",
"    * * * * * * * * * * * * * * * % : e.x.M.M.M.N.N.T.k $ * &  XXX3 # * & ~ -.O.O.@.@.O.*.d X * * * * * * * * * * * * * * *     ",
"    * * * * * * * * * * * * * * * $ c n.x.k.M.M.N.R.7.% % + p +X@X[ . * @ d -.O.O.O.O.@.*.~ * * * * * * * * * * * - * * * *     ",
"    * - * * * * * * * * * * * * * % q.n.k.k.M.M.M.W.n $ * # } @XOX.X& * & ; +.@.@.O.@.@.*.*.t # * * * * * * * * * * * * * *     ",
"    * * * * * * * * * * * * * * @ h b.c.k.k.M.M.N.h.: = # 9 XXoXOXOXw # - X I *.@.@.O.@.@.;.R X * * * * * * * * * * * * * *     ",
"    * * * * * * * * * * * * * * = F b.c.k.k.M.M.E.,.@ * . ] @XoXXX@X} + * # r *.O.@.@.@.@.@.@.> % * * * * * * * * * * * * *     ",
"    * * * * * * * * * * * * * = 1 a.c.k.k.k.M.M.B.7 @ * -  XOXoXXXOXXX9 # * # ^ -.@.-.@.@.-.;.f X * * * * * * * * * * * * *     ",
"    * * * * * * * * * * * * * $ M b.c.x.k.k.M.C.4.@ * . V @XoXoXXXXX+X] . * % a ;.@.$.@.@.@.=.) - * * * * * * * * * * * * *     ",
"    * * * * * * * * * * * * = * w.s.c.z.k.k.l.C.z @ * # | @XoXoXXXXXOX X- & & - _ -.#.@.@.@.*.=.y X * * * * * * * * * * *       ",
"      * * * * - * * * * * * @ l s.a.c.z.k.k.V.f., = # q oXOXoXoXoXoXOX+XV + * X L :.@.@.*.=.=.=.E % * * * * * * * - * * *       ",
"      * * * * * * * * * * * $ H s.p.c.c.k.k.C.D @ * + { @XOXoX+XOXOX+X@X| # * % 0 @.@.;.#.#.#.=.#.r # * * * * * * * * * *       ",
"      * * * * * * * * * * = 2 i.i.p.c.c.k.l.M.5 % & & e w w w w w w w w w - * * # E ].@.#.#.#.#.[.L X & * * * * * * * * *       ",
"      * * * * * * * * * * $ M d.i.p.c.x.k.Z.2.@ * * * * # o o + # # + # # - & * # i D.=.#.#.=.#.=.` - & * * * * * * * *         ",
"        * * * * * * * * % ; w.d.i.p.c.x.x.Z.g @ * * * * * * * * - & * & * * * * * * _ =.#.#.#.D.=.{.a X * * * * * * * *         ",
"        * * * * * * * * $ x d.i.i.p.c.x.l.r.- * * * * * * * * * * * * * * * * * * X b [.#.=.S.#.#.{.' % & * * * * * * *         ",
"        * * - * * * * * = H u.i.i.p.c.x.Z.M $ * * * * * * * * * * * * * * * * * * % 4 =.D.S.#.;.#.].].r % * * * * * *           ",
"          * * * * * * $ 2 u.t.i.i.p.p.v.z.< % * * * * * * - * * * * * * * * * * * * X W D.D.D.D.S.S.{.P X - * * * * *           ",
"          * * * * * * $ G y.t.i.i.p.c.n.F = * * * * * * * * * * * * * * * * * * * * # u [.D.D.S.].S.].$.- % * * * *             ",
"            * * * * % - t.u.t.i.i.p.p.n.h $ * * * * * * * * * * * * * * * * * * * * * * _ D.D.D.D.S.S.{.b X * * * *             ",
"            * * & - O x y.t.t.i.i.p.b.4.* * * * * * * * * * * * * * * * * * - * * * * X b {.D.S.D.].].{.) & * * *               ",
"              * * % * J y.y.d.d.s.b.m.M $ % * * * * * * * * * * * * * * * * * * * * * % : S.{.{.{.{.{.{.|.i X * -               ",
"                * % < C C Z Z Z A A A : % * * * * * * * * * * * * * * * * * * * * * * * % s W P P P P P W a % &                 ",
"                * * * = = @ $ = @ $ @ % * * * * * * * * * * * * * * * * * * * * * * * * * @ @ X X X o X @ & *                   ",
"                  * * * * * * * * * * * * * * * * * * * * * * * * * * * * * * * * * * * - & * * * * - - * *                     ",
"                    * * * * * * * * * * * * * * * * * - * * * * * * * * * * * * * * * * - * * * * * * * *                       ",
"                      * * * * * * * * - * * * * * * * * * * * * * * * * * * * * * * * * * * * * * * * * *                       ",
"                        * * * * * * * * * * * * * * * * * * * * * * * * * * * * * * * * * * * * * * *                           ",
"                          * * * * * * * * * * * * * * * * * * * * * * * * * * * * * * * * * * * * *                             ",
"                              * * * * * * * * * * * * * - * * * - * * * * * * * * * * * * * * * *                               ",
"                                * * * * - * * * * * * * * * * * * * * * * * * * * * * * * * *                                   ",
"                                    * * * * * * * * * * * * * * * * * * * * * * * * * * * *                                     ",
"                                        * * * * * * * * * * * * * * * * * * * * * * * *                                         ",
"                                            * * * * * * * * * * * * * * * - * * *                                               ",
"                                                    * * * * * * * * * - *                                                       ",
"                                                                                                                                ",
"                                                                                                                                "
};
