/* XPM */
static char *_42c775702f249168c895d73f3e91a14[] = {
/* columns rows colors chars-per-pixel */
"16 16 116 2 ",
"   c None",
".  c #05161F",
"X  c #07171F",
"o  c #08171F",
"O  c #00181F",
"+  c #01181F",
"@  c #001723",
"#  c #061720",
"$  c #061721",
"%  c #001724",
"&  c #081722",
"*  c #081723",
"=  c #0A1725",
"-  c #001821",
";  c #011821",
":  c #001823",
">  c #021822",
",  c #021824",
"<  c #031824",
"1  c #051826",
"2  c #061826",
"3  c #071826",
"4  c #0A1824",
"5  c #0B1825",
"6  c #0A1826",
"7  c #0B1826",
"8  c #0C1827",
"9  c #0C1927",
"0  c #0E1728",
"q  c #091829",
"w  c #0B1928",
"e  c #0B1929",
"r  c #0E1829",
"t  c #0C192A",
"y  c #0D192A",
"u  c #0D192B",
"i  c #0E182A",
"p  c #0E192A",
"a  c #0E192B",
"s  c #101A2B",
"d  c #101A2F",
"f  c #131A30",
"g  c #141C35",
"h  c #151C36",
"j  c #1E1B31",
"k  c #101C38",
"l  c #251C34",
"z  c #261C3B",
"x  c #2C1D3D",
"c  c #301D3A",
"v  c #0B273D",
"b  c #1F1E42",
"n  c #1E1F42",
"m  c #251E48",
"M  c #271D4C",
"N  c #321B43",
"B  c #381D4D",
"V  c #3D1C55",
"C  c #132540",
"Z  c #1C2555",
"A  c #1F2458",
"S  c #20204C",
"D  c #282252",
"F  c #2F2459",
"G  c #35286D",
"H  c #3B296F",
"J  c #431E51",
"K  c #581A54",
"L  c #51204F",
"P  c #53214E",
"I  c #6E2455",
"U  c #631F72",
"Y  c #442A75",
"T  c #76246C",
"R  c #7F256E",
"E  c #044161",
"W  c #044361",
"Q  c #862761",
"!  c #82207E",
"~  c #AA2A7F",
"^  c #412E87",
"/  c #4C2A89",
"(  c #563195",
")  c #583BBE",
"_  c #6434AB",
"`  c #6037AE",
"'  c #653BC3",
"]  c #683DCA",
"[  c #7F3FCE",
"{  c #7041DF",
"}  c #7B40DA",
"|  c #7B42E2",
" . c #9B268F",
".. c #AF2190",
"X. c #CB2C9F",
"o. c #D2299E",
"O. c #E9338B",
"+. c #F032A1",
"@. c #F432A4",
"#. c #FF34AE",
"$. c #FC31BE",
"%. c #FE30BE",
"&. c #BA26C4",
"*. c #D228C4",
"=. c #E32CC1",
"-. c #EE2DC9",
";. c #FF2FD6",
":. c #F42BE2",
">. c #FC2CE9",
",. c #8141DC",
"<. c #8B42DA",
"1. c #8C43E7",
"2. c #0080BC",
"3. c #0380C0",
"4. c #0483C5",
"5. c #0085C5",
/* pixels */
"              + +               ",
"          9 s B V f a           ",
"      a a : J :.&.9 7 a a       ",
"    a a a :  .>.U Z d a a a     ",
"  a a a 3 z =.*.m ) S = a a     ",
"  a a a : T ;.! Z { ^ o a a a   ",
"a a a e s X.-.N k ] ' g 9 a a   ",
"a a a : L $...E E / | G X a a a ",
"p p p : ..%.K 2.5.M [ ` 7 a a a ",
"p p 3 c +.o.v 3.4.v _ ,.D $ a a ",
"  p O Q #.R : 9 s $ H 1.( $ a   ",
"  e j O.+.c 3 a 0 7 g ,.<.n =   ",
"    l I L a a a a a 7 F Y n     ",
"      , , a a a a a a * X       ",
"        a a a a a a a a         ",
"            a a a a             "
};
