<svg xmlns="http://www.w3.org/2000/svg" viewBox="0 0 1920 1080">
    <defs>
        <linearGradient id="a" x1="149.338" y1="540" x2="395.513" y2="540" gradientUnits="userSpaceOnUse">
            <stop offset="0" stop-color="#ee357d"/>
            <stop offset="1" stop-color="#da26ee"/>
        </linearGradient>
        <linearGradient id="b" x1="385.673" y1="455.151" x2="536.611" y2="719.292" gradientUnits="userSpaceOnUse">
            <stop offset="0" stop-color="#5f3cc7"/>
            <stop offset="1" stop-color="#853fd1"/>
        </linearGradient>
    </defs>
    <title>Aezora - Logo Design _1</title>
    <rect width="1920" height="1080" fill="none"/>
    <g>
        <g>
            <polygon points="395.513 336.944 316.236 336.944 149.338 743.056 228.615 743.056 395.513 336.944" fill="url(#a)"/>
            <polygon points="401.348 643.73 354.046 528.629 306.744 643.73 401.348 643.73" fill="#019def"/>
            <polygon points="413.457 383.991 373.819 480.443 481.744 743.056 561.02 743.056 413.457 383.991" fill="url(#b)"/>
        </g>
        <g>
            <path d="M766.693,443.206h56.125l83.791,257.978H854.078l-18.326-57.163H751.257l-18.608,57.163h-53Zm57.376,157.1-28.987-92.073L764.068,600.3Z" fill="#fff"/>
            <path d="M999.621,512.634c54.133,0,79.3,6.168,79.3,68.2,0,33.34-18.326,46.874-52.16,46.874H967.2c0,33.779,12.758,35.788,39.472,35.788,28.547,0,42.291.159,68.724-3.718v33.3c-26.415,9.852-66.609,9.869-95.861,9.869-47.578,0-61.675-27.561-61.675-96.214C917.857,526.308,940.271,512.634,999.621,512.634Zm14.344,79.65c10.272,0,15.612-5.058,15.612-13.974,0-23.631-3.366-27.966-27.085-27.966-26.061,0-35.683,1.516-35.295,41.94Z" fill="#fff"/>
            <path d="M1097.582,514.045h151.192V555.63l-80.125,103.615h80.125c.353.353,0,41.587,0,41.587H1102.868v-41.2l84.019-104h-89.3Z" fill="#fff"/>
            <path d="M1355.318,512.282c64.441,0,85.375,23.613,85.375,97.975,0,69.43-19.964,92.69-85.375,92.69-64.636,0-85.377-25.727-85.377-92.69C1269.941,533.78,1292.056,512.282,1355.318,512.282Zm0,151.016c27.789,0,36.036-3.769,36.036-53.041,0-52.424-6.626-58.327-36.036-58.327-29.2,0-36.037,5.939-36.037,58.327C1319.281,658.682,1329.1,663.3,1355.318,663.3Z" fill="#fff"/>
            <path d="M1470.056,514.045h41.586l7.754,23.612c12.969-12.529,30.414-25.534,53.692-25.534,8.088,0,15.842.318,20.847,2.239v47.63c-5-.475-16.441-.952-27.049-.952-20.442,0-35.279,3.331-47.49,20.829V701.184h-49.34Z" fill="#fff"/>
            <path d="M1611.522,635.862c0-27.226,14.714-51.332,54.82-51.332,0,0,54.979.353,54.979,0,0,0,.353-11.63,0-11.983,0-19.947-9.339-23.083-25.022-23.083-16.264,0-63.208,2.925-78.592,4.035V523.031c24.635-9.568,50.38-12.353,85.271-12.512,40.3-.158,67.684,13.764,67.684,60.09V701.184H1731.7l-10.379-20.616c-2.062,4.071-28.335,23.313-56.917,22.732-36-.97-52.882-25.482-52.882-49.816Zm66.839,27.789c20.634,0,42.96-14.484,42.96-14.484V614.856l-45.287,3.507c-13.021,1.217-15.172,10.856-15.172,19.032v9.093C1660.862,662.047,1669.286,663.651,1678.361,663.651Z" fill="#fff"/>
        </g>
    </g>
</svg>